<svg id="logo" data-name="Logo" xmlns="http://www.w3.org/2000/svg" viewBox="0 0 115.25 23.53"><defs><style>.cls-1{fill:#000000;}</style></defs><path class="cls-1" d="M11.32,10v3.34H7.75V23.4H3.53V13.29H0V10Z"/><path class="cls-1" d="M16.68,10V23.4H12.46V10Z"/><path class="cls-1" d="M34.75,10V23.4h-4.2V16.69L28.48,23.4H24.87L22.8,16.69V23.4H18.58V10h5.17l3,8.07L29.6,10Z"/><path class="cls-1" d="M40.87,13.29V15h4.18v3.18H40.87V20h4.75V23.4h-9V10h9v3.34Z"/><path class="cls-1" d="M49.06,10V23.4H47.71V10Z"/><path class="cls-1" d="M62,23.4H60.63L53.29,12.21V23.4H52V10h1.34l7.34,11.21V10H62Z"/><path class="cls-1" d="M72.61,21.72A3.33,3.33,0,0,1,71.29,23a4.57,4.57,0,0,1-2.23.5,5.38,5.38,0,0,1-2.29-.47,4.09,4.09,0,0,1-1.61-1.3,3.67,3.67,0,0,1-.69-1.86h1.4a2.94,2.94,0,0,0,.44,1.18,2.89,2.89,0,0,0,1,1,3.31,3.31,0,0,0,1.66.39A2.66,2.66,0,0,0,71,21.77,2.42,2.42,0,0,0,71.63,20a2.27,2.27,0,0,0-.45-1.46,2.91,2.91,0,0,0-1.1-.86,16.07,16.07,0,0,0-1.79-.67,14.44,14.44,0,0,1-2-.77A3.4,3.4,0,0,1,65,15.19a3.19,3.19,0,0,1-.53-1.92,3.17,3.17,0,0,1,1.06-2.47,4.27,4.27,0,0,1,2.93-1,4.53,4.53,0,0,1,3,.93,3.67,3.67,0,0,1,1.32,2.32H71.33a2.79,2.79,0,0,0-.91-1.52,2.86,2.86,0,0,0-2-.66,2.79,2.79,0,0,0-1.88.6,2.12,2.12,0,0,0-.71,1.69,2.1,2.1,0,0,0,.44,1.39,2.87,2.87,0,0,0,1.07.82c.43.19,1,.4,1.74.65a15.76,15.76,0,0,1,2.07.77A3.62,3.62,0,0,1,72.48,18,3.36,3.36,0,0,1,73,20,3.68,3.68,0,0,1,72.61,21.72Z"/><path class="cls-1" d="M76.82,10V23.4H75.47V10Z"/><path class="cls-1" d="M89.6,11a5.73,5.73,0,0,1,2.17,3.1H90.38a4.55,4.55,0,0,0-1.74-2.19,5,5,0,0,0-2.89-.83,5,5,0,0,0-2.62.68,4.75,4.75,0,0,0-1.83,2,6.33,6.33,0,0,0-.66,3,6.32,6.32,0,0,0,.67,3,4.82,4.82,0,0,0,1.86,2,5.61,5.61,0,0,0,5.18.09A4.65,4.65,0,0,0,90.16,20,5.78,5.78,0,0,0,91,17.34H85.4v-1h6.73v1.18a7,7,0,0,1-1,3.08A6,6,0,0,1,89,22.74a6.31,6.31,0,0,1-3.18.79,6.67,6.67,0,0,1-3.39-.86,6.09,6.09,0,0,1-2.3-2.42,7.57,7.57,0,0,1-.81-3.54,7.53,7.53,0,0,1,.81-3.53,6,6,0,0,1,2.29-2.43,6.61,6.61,0,0,1,3.38-.86A6.38,6.38,0,0,1,89.6,11Z"/><path class="cls-1" d="M104.5,10V23.4h-1.33V17.05H95.91V23.4H94.56V10h1.35V16h7.26V10Z"/><path class="cls-1" d="M115.25,10v1.09h-3.82V23.4H110.1V11.09h-3.8V10Z"/><path class="cls-1" d="M14.57,0a4.24,4.24,0,1,0,4.24,4.24A4.23,4.23,0,0,0,14.57,0Zm1.15,5.75-1.39-1a.21.21,0,0,1-.08-.17V1.85a.2.2,0,0,1,.2-.21h.24a.21.21,0,0,1,.21.21v2.5l1.2.87a.22.22,0,0,1,0,.29L16,5.7a.22.22,0,0,1-.29,0Z"/></svg>